<svg width="37" height="34" viewBox="0 0 37 34" fill="none" xmlns="http://www.w3.org/2000/svg">
<path d="M8.97013 31.1413C8.97013 31.1413 16.2514 23.5997 15.6219 15.0003C14.9924 6.40085 6.69042 0 6.69042 0C6.69042 0 -0.590934 7.54163 0.0385879 16.1411C0.668111 24.7406 8.97013 31.1413 8.97013 31.1413Z" fill="#7675FD"/>
<path d="M8.86806 31.3622C8.86806 31.3622 18.3277 30.358 22.9933 23.9889C27.659 17.6198 25.7639 8.29767 25.7639 8.29767C25.7639 8.29767 16.3043 9.30186 11.6386 15.671C6.97295 22.0401 8.86806 31.3622 8.86806 31.3622Z" fill="#F26C74"/>
<path d="M9.43579 31.4905C9.43579 31.4905 17.3596 35.0487 24.8531 32.5626C32.3466 30.0765 36.5722 22.4875 36.5722 22.4875C36.5722 22.4875 28.6483 18.9293 21.1548 21.4154C13.6613 23.9015 9.43579 31.4905 9.43579 31.4905Z" fill="#FAA881"/>
</svg>
